<svg xmlns="http://www.w3.org/2000/svg" xmlns:xlink="http://www.w3.org/1999/xlink" width="1080" zoomAndPan="magnify" viewBox="0 0 810 809.999993" height="1080" preserveAspectRatio="xMidYMid meet" version="1.0"><defs><g/></defs><g fill="#00ff95" fill-opacity="1"><g transform="translate(24.820822, 396.75)"><g><path d="M 52.640625 -160.6875 L 52.640625 -26.59375 L 124.859375 -26.59375 L 124.859375 0 L 20.875 0 L 20.875 -160.6875 Z M 52.640625 -160.6875 "/></g></g></g><g fill="#00ff95" fill-opacity="1"><g transform="translate(157.206323, 396.75)"><g><path d="M 52.640625 -70.5625 L 52.640625 -26.59375 L 129.359375 -26.59375 L 129.359375 0 L 20.875 0 L 20.875 -160.6875 L 127.609375 -160.6875 L 127.609375 -134.09375 L 52.640625 -134.09375 L 52.640625 -96.5 L 118.15625 -96.5 L 118.15625 -70.5625 Z M 52.640625 -70.5625 "/></g></g></g><g fill="#00ff95" fill-opacity="1"><g transform="translate(297.615323, 396.75)"><g><path d="M 154.203125 0 L 120.796875 0 L 108.703125 -37.046875 L 47.15625 -37.046875 L 35.0625 0 L 2.421875 0 L 57.921875 -160.6875 L 98.703125 -160.6875 Z M 76.390625 -127.171875 L 55.71875 -63.75 L 99.90625 -63.75 L 79.140625 -127.171875 Z M 76.390625 -127.171875 "/></g></g></g><g fill="#00ff95" fill-opacity="1"><g transform="translate(456.489338, 396.75)"><g><path d="M 20.875 0 L 20.875 -160.6875 L 85.40625 -160.6875 C 102.03125 -160.6875 114.570312 -156.859375 123.03125 -149.203125 C 131.5 -141.546875 135.734375 -130.976562 135.734375 -117.5 C 135.734375 -107.75 133.257812 -99.757812 128.3125 -93.53125 C 123.375 -87.300781 115.992188 -82.539062 106.171875 -79.25 L 106.171875 -76.9375 C 111.222656 -74.738281 115.304688 -71.476562 118.421875 -67.15625 C 121.535156 -62.832031 124.488281 -56.421875 127.28125 -47.921875 L 143.328125 0 L 110.671875 0 L 94.96875 -48.03125 C 93.351562 -52.863281 91.535156 -56.617188 89.515625 -59.296875 C 87.503906 -61.972656 84.941406 -63.914062 81.828125 -65.125 C 78.710938 -66.332031 74.664062 -66.9375 69.6875 -66.9375 L 52.640625 -66.9375 L 52.640625 0 Z M 81.546875 -92.109375 C 96.941406 -92.109375 104.640625 -99.285156 104.640625 -113.640625 C 104.640625 -128.222656 96.941406 -135.515625 81.546875 -135.515625 L 52.640625 -135.515625 L 52.640625 -92.109375 Z M 81.546875 -92.109375 "/></g></g></g><g fill="#00ff95" fill-opacity="1"><g transform="translate(608.98854, 396.75)"><g><path d="M 51.65625 0 L 20.875 0 L 20.875 -160.6875 L 57.265625 -160.6875 L 121.78125 -57.15625 L 124.640625 -57.59375 L 124.640625 -160.6875 L 155.1875 -160.6875 L 155.1875 0 L 122.65625 0 L 54.40625 -110.5625 L 51.65625 -110.125 Z M 51.65625 0 "/></g></g></g><g fill="#00ff95" fill-opacity="1"><g transform="translate(24.820822, 587.99999)"><g><path d="M 52.640625 -160.6875 L 52.640625 -26.59375 L 124.859375 -26.59375 L 124.859375 0 L 20.875 0 L 20.875 -160.6875 Z M 52.640625 -160.6875 "/></g></g></g><g fill="#00ff95" fill-opacity="1"><g transform="translate(157.206323, 587.99999)"><g><path d="M 52.640625 -70.5625 L 52.640625 -26.59375 L 129.359375 -26.59375 L 129.359375 0 L 20.875 0 L 20.875 -160.6875 L 127.609375 -160.6875 L 127.609375 -134.09375 L 52.640625 -134.09375 L 52.640625 -96.5 L 118.15625 -96.5 L 118.15625 -70.5625 Z M 52.640625 -70.5625 "/></g></g></g><g fill="#00ff95" fill-opacity="1"><g transform="translate(297.615323, 587.99999)"><g><path d="M 154.203125 0 L 120.796875 0 L 108.703125 -37.046875 L 47.15625 -37.046875 L 35.0625 0 L 2.421875 0 L 57.921875 -160.6875 L 98.703125 -160.6875 Z M 76.390625 -127.171875 L 55.71875 -63.75 L 99.90625 -63.75 L 79.140625 -127.171875 Z M 76.390625 -127.171875 "/></g></g></g><g fill="#00ff95" fill-opacity="1"><g transform="translate(456.489338, 587.99999)"><g><path d="M 122.765625 -160.6875 L 122.765625 -134.09375 L 52.640625 -134.09375 L 52.640625 -91.546875 L 116.28125 -91.546875 L 116.28125 -65.28125 L 52.640625 -65.28125 L 52.640625 0 L 20.875 0 L 20.875 -160.6875 Z M 122.765625 -160.6875 "/></g></g></g></svg>