<svg version="1.1" id="Layer_1" xmlns="http://www.w3.org/2000/svg" xmlns:xlink="http://www.w3.org/1999/xlink" x="0px" y="0px"
	 width="100%" viewBox="0 0 1080 1080" enable-background="new 0 0 1080 1080" xml:space="preserve">
<path fill="#192D34" opacity="1.000000" stroke="none" 
	d="
M572.000000,1081.000000 
	C381.355286,1081.000000 191.210556,1081.000000 1.065831,1081.000000 
	C1.043885,1080.855347 1.002706,1080.710571 1.002705,1080.565918 
	C0.999976,720.774109 1.000000,360.982269 1.000000,1.095229 
	C360.894958,1.095229 720.789917,1.095229 1080.842529,1.095229 
	C1080.842529,360.999939 1080.842529,720.999939 1080.842529,1081.000000 
	C911.459900,1081.000000 741.979919,1081.000000 572.000000,1081.000000 
M1044.012085,615.549866 
	C1044.337891,613.939575 1044.809082,612.343384 1044.966675,610.716736 
	C1046.320190,596.752197 1048.654297,582.786255 1048.709717,568.812927 
	C1048.817871,541.574097 1048.716553,514.247803 1046.637451,487.115906 
	C1045.123413,467.359802 1040.693359,447.779633 1036.858765,428.259430 
	C1030.244751,394.590393 1018.781616,362.376221 1004.573853,331.285583 
	C991.363159,302.376892 976.543091,274.162323 957.116211,248.799240 
	C942.663635,229.930389 928.450867,210.707153 912.267395,193.382889 
	C896.232239,176.217300 878.263611,160.766541 860.416809,145.407425 
	C837.421814,125.617722 811.988464,109.165756 785.344299,94.718864 
	C754.266724,77.868057 721.816467,64.265564 687.937256,53.925846 
	C648.861877,42.000290 608.902466,35.054932 568.240540,33.324921 
	C537.267883,32.007156 506.197784,32.287910 475.300720,36.799000 
	C452.609863,40.111958 430.146912,44.108234 407.954620,50.016041 
	C363.161621,61.940369 321.054382,80.146049 281.169983,103.488365 
	C249.221786,122.186020 219.686508,144.375183 192.989212,169.986572 
	C176.962204,185.361664 161.641312,201.637619 147.426376,218.694839 
	C129.880112,239.749466 114.272362,262.300659 100.736984,286.286926 
	C85.335144,313.580688 71.796074,341.638550 61.458485,371.248993 
	C51.878891,398.688293 44.326366,426.574280 39.742889,455.342712 
	C36.148624,477.902374 33.125652,500.489960 33.164864,523.308472 
	C33.205379,546.885437 33.239132,570.556030 35.301571,594.007507 
	C37.068302,614.096497 41.263874,634.019043 45.159206,653.863220 
	C51.800732,687.697571 63.422325,720.034241 77.688049,751.279541 
	C90.890388,780.195801 105.816391,808.360718 125.192009,833.738708 
	C139.715317,852.761169 154.548355,871.629700 170.461288,889.481079 
	C182.021317,902.449402 195.096756,914.202209 208.362671,925.477905 
	C222.828110,937.773254 237.988617,949.314331 253.389664,960.431213 
	C279.253082,979.099731 307.382568,993.894592 336.480438,1006.839722 
	C361.455444,1017.950623 387.166107,1027.213013 413.726044,1033.533813 
	C434.039673,1038.368286 454.708221,1042.007568 475.400421,1044.863159 
	C492.565735,1047.231934 509.977448,1048.253296 527.314148,1048.812500 
	C543.081848,1049.321045 558.909668,1048.720459 574.684265,1048.013062 
	C587.057495,1047.458374 599.542358,1046.866333 611.706482,1044.739990 
	C632.610535,1041.085815 653.462585,1036.862671 674.051819,1031.735352 
	C718.998901,1020.542358 761.010376,1001.972351 800.829285,978.526611 
	C832.726929,959.745056 862.345093,937.672546 889.015686,912.018799 
	C905.023621,896.621399 920.357178,880.360901 934.574219,863.304932 
	C952.123474,842.251526 967.712585,819.687927 981.272278,795.716064 
	C995.885498,769.881409 1008.886230,743.353821 1019.007019,715.464478 
	C1030.674316,683.313721 1039.290161,650.361633 1044.012085,615.549866 
z"/>
<path fill="#00FF95" opacity="1.000000" stroke="none" 
	d="
M1044.003784,615.994263 
	C1039.290161,650.361633 1030.674316,683.313721 1019.007019,715.464478 
	C1008.886230,743.353821 995.885498,769.881409 981.272278,795.716064 
	C967.712585,819.687927 952.123474,842.251526 934.574219,863.304932 
	C920.357178,880.360901 905.023621,896.621399 889.015686,912.018799 
	C862.345093,937.672546 832.726929,959.745056 800.829285,978.526611 
	C761.010376,1001.972351 718.998901,1020.542358 674.051819,1031.735352 
	C653.462585,1036.862671 632.610535,1041.085815 611.706482,1044.739990 
	C599.542358,1046.866333 587.057495,1047.458374 574.684265,1048.013062 
	C558.909668,1048.720459 543.081848,1049.321045 527.314148,1048.812500 
	C509.977448,1048.253296 492.565735,1047.231934 475.400421,1044.863159 
	C454.708221,1042.007568 434.039673,1038.368286 413.726044,1033.533813 
	C387.166107,1027.213013 361.455444,1017.950623 336.480438,1006.839722 
	C307.382568,993.894592 279.253082,979.099731 253.389664,960.431213 
	C237.988617,949.314331 222.828110,937.773254 208.362671,925.477905 
	C195.096756,914.202209 182.021317,902.449402 170.461288,889.481079 
	C154.548355,871.629700 139.715317,852.761169 125.192009,833.738708 
	C105.816391,808.360718 90.890388,780.195801 77.688049,751.279541 
	C63.422325,720.034241 51.800732,687.697571 45.159206,653.863220 
	C41.263874,634.019043 37.068302,614.096497 35.301571,594.007507 
	C33.239132,570.556030 33.205379,546.885437 33.164864,523.308472 
	C33.125652,500.489960 36.148624,477.902374 39.742889,455.342712 
	C44.326366,426.574280 51.878891,398.688293 61.458485,371.248993 
	C71.796074,341.638550 85.335144,313.580688 100.736984,286.286926 
	C114.272362,262.300659 129.880112,239.749466 147.426376,218.694839 
	C161.641312,201.637619 176.962204,185.361664 192.989212,169.986572 
	C219.686508,144.375183 249.221786,122.186020 281.169983,103.488365 
	C321.054382,80.146049 363.161621,61.940369 407.954620,50.016041 
	C430.146912,44.108234 452.609863,40.111958 475.300720,36.799000 
	C506.197784,32.287910 537.267883,32.007156 568.240540,33.324921 
	C608.902466,35.054932 648.861877,42.000290 687.937256,53.925846 
	C721.816467,64.265564 754.266724,77.868057 785.344299,94.718864 
	C811.988464,109.165756 837.421814,125.617722 860.416809,145.407425 
	C878.263611,160.766541 896.232239,176.217300 912.267395,193.382889 
	C928.450867,210.707153 942.663635,229.930389 957.116211,248.799240 
	C976.543091,274.162323 991.363159,302.376892 1004.573853,331.285583 
	C1018.781616,362.376221 1030.244751,394.590393 1036.858765,428.259430 
	C1040.693359,447.779633 1045.123413,467.359802 1046.637451,487.115906 
	C1048.716553,514.247803 1048.817871,541.574097 1048.709717,568.812927 
	C1048.654297,582.786255 1046.320190,596.752197 1044.966675,610.716736 
	C1044.809082,612.343384 1044.337891,613.939575 1044.003784,615.994263 
M965.982178,347.500000 
	C965.982178,333.888245 965.982178,320.276520 965.982178,306.489777 
	C956.044495,306.489777 946.663452,306.489777 936.685303,306.489777 
	C936.685303,350.641296 936.685303,394.445526 936.685303,439.683075 
	C934.972412,436.794739 934.012756,435.254303 933.127380,433.672363 
	C910.121521,392.568909 887.135925,351.454102 864.077148,310.380341 
	C863.179688,308.781769 861.632996,306.403595 860.324768,306.361115 
	C850.064148,306.027771 839.787964,306.176331 829.337769,306.176331 
	C829.337769,367.019592 829.337769,427.247864 829.337769,487.705841 
	C839.007812,487.705841 848.407959,487.705841 858.531372,487.705841 
	C858.531372,444.375549 858.531372,401.318024 858.531372,358.260468 
	C860.476929,359.826782 861.459351,361.534454 862.430603,363.248505 
	C885.241455,403.506592 908.036682,443.773499 930.915039,483.993164 
	C931.800598,485.549866 933.449280,487.750824 934.800232,487.792847 
	C945.059387,488.112122 955.333008,487.967529 965.982178,487.967529 
	C965.982178,441.075958 965.982178,394.787994 965.982178,347.500000 
M753.546082,444.940704 
	C747.374329,433.769562 741.202515,422.598389 734.866821,411.130646 
	C756.626770,403.198792 767.604553,387.436066 769.442322,365.139709 
	C772.231445,331.300629 751.846130,305.651886 717.012329,306.027527 
	C693.856628,306.277252 670.696106,306.071777 647.537720,306.070068 
	C645.794312,306.069916 644.050842,306.070007 642.391724,306.070007 
	C642.391724,367.152588 642.391724,427.388550 642.391724,487.641357 
	C652.443481,487.641357 662.169189,487.641357 672.337524,487.641357 
	C672.337524,462.696472 672.337524,438.109436 672.337524,413.076538 
	C680.908936,413.076538 689.040771,413.216278 697.163513,413.005157 
	C700.253052,412.924835 701.871155,413.956970 703.309631,416.711212 
	C712.862549,435.001526 722.594666,453.198395 732.308838,471.404114 
	C735.202881,476.827911 736.978027,484.317139 741.534058,486.981354 
	C746.285645,489.759949 753.773865,487.906647 760.066772,487.987152 
	C765.586060,488.057739 771.106995,488.001892 777.319641,488.001892 
	C769.168884,473.238525 761.535828,459.412781 753.546082,444.940704 
M343.500061,306.136047 
	C323.434723,306.136047 303.369385,306.136047 283.414673,306.136047 
	C283.414673,367.232788 283.414673,427.453735 283.414673,487.786377 
	C323.182587,487.786377 362.603424,487.786377 402.184509,487.786377 
	C402.184509,478.202362 402.184509,468.840515 402.184509,458.954529 
	C372.342041,458.954529 342.947266,458.954529 313.575928,458.954529 
	C313.575928,443.047058 313.575928,427.675018 313.575928,411.767700 
	C338.878357,411.767700 363.766235,411.767700 388.633484,411.767700 
	C388.633484,402.121948 388.633484,393.021515 388.633484,383.316711 
	C363.489075,383.316711 338.598694,383.316711 313.437256,383.316711 
	C313.437256,366.980347 313.437256,351.252991 313.437256,334.896057 
	C343.205109,334.896057 372.724792,334.896057 402.262024,334.896057 
	C402.262024,325.018402 402.262024,315.774872 402.262024,306.136047 
	C382.760712,306.136047 363.630371,306.136047 343.500061,306.136047 
M458.500092,747.182617 
	C444.555359,747.182617 430.610626,747.182617 416.519409,747.182617 
	C416.519409,731.190979 416.519409,715.810242 416.519409,699.872437 
	C441.780212,699.872437 466.677399,699.872437 491.475281,699.872437 
	C491.475281,690.092102 491.475281,680.877014 491.475281,671.214111 
	C466.289856,671.214111 441.519562,671.214111 416.453918,671.214111 
	C416.453918,655.018372 416.453918,639.284424 416.453918,622.898315 
	C446.190765,622.898315 475.718170,622.898315 505.248596,622.898315 
	C505.248596,612.995544 505.248596,603.747864 505.248596,594.436523 
	C465.444366,594.436523 426.022278,594.436523 386.486542,594.436523 
	C386.486542,655.094177 386.486542,715.449463 386.486542,775.677673 
	C426.326141,775.677673 465.747162,775.677673 505.262329,775.677673 
	C505.262329,766.105957 505.262329,756.863281 505.262329,747.182617 
	C489.768921,747.182617 474.634521,747.182617 458.500092,747.182617 
M531.499756,453.772949 
	C536.999268,453.773224 542.509094,453.977417 547.994568,453.700348 
	C551.509094,453.522827 553.246033,454.524872 554.349060,458.102936 
	C557.091797,466.999603 560.309753,475.753357 563.505432,484.502960 
	C563.990479,485.831116 565.351562,487.806610 566.348145,487.831177 
	C576.398804,488.078796 586.458008,487.981995 597.000366,487.981995 
	C596.219055,485.875031 595.708618,484.484619 595.188538,483.097900 
	C575.034058,429.359131 554.886475,375.617767 534.710571,321.887024 
	C532.783813,316.755829 532.038269,309.647980 528.286987,307.154144 
	C524.314392,304.513123 517.384155,306.533630 511.785736,306.052490 
	C507.888611,305.717590 506.330994,307.339355 505.040985,310.793640 
	C483.623993,368.142212 462.079071,425.443024 440.573883,482.758698 
	C439.978119,484.346619 439.505859,485.980957 438.841980,488.001587 
	C449.097931,488.001587 458.592773,488.132202 468.075775,487.856323 
	C469.448883,487.816345 471.463715,486.091766 471.993408,484.695831 
	C475.179108,476.300415 478.230347,467.838989 480.880737,459.261841 
	C482.147980,455.160828 483.969147,453.537476 488.505615,453.647705 
	C502.496399,453.987671 516.500671,453.772491 531.499756,453.772949 
M610.074951,596.349792 
	C587.646057,656.064453 565.217163,715.779114 542.598083,776.000183 
	C553.011536,776.000183 562.664978,776.132690 572.305969,775.845886 
	C573.631042,775.806458 575.539734,773.926270 576.080444,772.486145 
	C579.410767,763.616028 582.517822,754.657959 585.490601,745.660217 
	C586.395020,742.922607 587.548889,741.667908 590.712219,741.691711 
	C611.532227,741.848145 632.354370,741.838135 653.174622,741.702209 
	C656.072083,741.683289 657.218872,742.740662 658.071838,745.322388 
	C661.096924,754.478088 664.256104,763.592773 667.596069,772.637512 
	C668.096252,773.992065 669.809570,775.820068 671.003540,775.851685 
	C680.810486,776.111694 690.627258,775.998413 700.908997,775.998413 
	C700.222961,774.042053 699.712769,772.493835 699.140625,770.968811 
	C678.931641,717.104919 658.723877,663.240479 638.491272,609.385437 
	C636.623169,604.412964 635.909363,597.510803 632.276001,595.105774 
	C628.412048,592.548096 621.708008,594.140198 616.247742,594.209473 
	C614.274963,594.234558 612.312805,595.097290 610.074951,596.349792 
M776.151978,715.511597 
	C776.151978,711.075806 776.151978,706.640015 776.151978,701.681091 
	C800.922424,701.681091 824.985535,701.681091 849.201233,701.681091 
	C849.201233,691.887451 849.201233,682.633606 849.201233,672.905762 
	C824.791199,672.905762 800.705322,672.905762 776.525024,672.905762 
	C776.525024,656.047058 776.525024,639.668091 776.525024,622.879639 
	C805.490784,622.879639 834.086365,622.879639 862.705811,622.879639 
	C862.705811,613.108765 862.705811,603.756042 862.705811,594.471313 
	C823.680603,594.471313 785.104126,594.471313 746.331787,594.471313 
	C746.331787,655.037292 746.331787,715.267761 746.331787,775.698792 
	C756.317383,775.698792 766.039246,775.698792 776.151978,775.698792 
	C776.151978,755.766968 776.151978,736.137085 776.151978,715.511597 
M117.854477,306.148407 
	C113.402763,306.206818 115.146393,309.650574 115.143196,311.662750 
	C115.052574,368.615326 115.071899,425.568054 115.073242,482.520782 
	C115.073280,484.271088 115.073242,486.021393 115.073242,487.747375 
	C155.258057,487.747375 194.666946,487.747375 234.139633,487.747375 
	C234.139633,478.140503 234.139633,468.794830 234.139633,458.917694 
	C204.269165,458.917694 174.889618,458.917694 145.069138,458.917694 
	C145.069138,407.821564 145.069138,357.267212 145.069138,306.141083 
	C136.019699,306.141083 127.409035,306.141083 117.854477,306.148407 
M219.070251,676.500000 
	C219.070251,709.583618 219.070251,742.667297 219.070251,775.721191 
	C259.258698,775.721191 298.685211,775.721191 338.291046,775.721191 
	C338.291046,766.196777 338.291046,756.956116 338.291046,747.183350 
	C308.546539,747.183350 279.138580,747.183350 249.076309,747.183350 
	C249.076309,695.949219 249.076309,645.245300 249.076309,594.583374 
	C238.705765,594.583374 229.002411,594.583374 219.070251,594.583374 
	C219.070251,621.852478 219.070251,648.676208 219.070251,676.500000 
z"/>
<path fill="#ECF1F7" opacity="1.000000" stroke="none" 
	d="
M965.982178,348.000000 
	C965.982178,394.787994 965.982178,441.075958 965.982178,487.967529 
	C955.333008,487.967529 945.059387,488.112122 934.800232,487.792847 
	C933.449280,487.750824 931.800598,485.549866 930.915039,483.993164 
	C908.036682,443.773499 885.241455,403.506592 862.430603,363.248505 
	C861.459351,361.534454 860.476929,359.826782 858.531372,358.260468 
	C858.531372,401.318024 858.531372,444.375549 858.531372,487.705841 
	C848.407959,487.705841 839.007812,487.705841 829.337769,487.705841 
	C829.337769,427.247864 829.337769,367.019592 829.337769,306.176331 
	C839.787964,306.176331 850.064148,306.027771 860.324768,306.361115 
	C861.632996,306.403595 863.179688,308.781769 864.077148,310.380341 
	C887.135925,351.454102 910.121521,392.568909 933.127380,433.672363 
	C934.012756,435.254303 934.972412,436.794739 936.685303,439.683075 
	C936.685303,394.445526 936.685303,350.641296 936.685303,306.489777 
	C946.663452,306.489777 956.044495,306.489777 965.982178,306.489777 
	C965.982178,320.276520 965.982178,333.888245 965.982178,348.000000 
z"/>
<path fill="#ECF1F7" opacity="1.000000" stroke="none" 
	d="
M753.724426,445.263885 
	C761.535828,459.412781 769.168884,473.238525 777.319641,488.001892 
	C771.106995,488.001892 765.586060,488.057739 760.066772,487.987152 
	C753.773865,487.906647 746.285645,489.759949 741.534058,486.981354 
	C736.978027,484.317139 735.202881,476.827911 732.308838,471.404114 
	C722.594666,453.198395 712.862549,435.001526 703.309631,416.711212 
	C701.871155,413.956970 700.253052,412.924835 697.163513,413.005157 
	C689.040771,413.216278 680.908936,413.076538 672.337524,413.076538 
	C672.337524,438.109436 672.337524,462.696472 672.337524,487.641357 
	C662.169189,487.641357 652.443481,487.641357 642.391724,487.641357 
	C642.391724,427.388550 642.391724,367.152588 642.391724,306.070007 
	C644.050842,306.070007 645.794312,306.069916 647.537720,306.070068 
	C670.696106,306.071777 693.856628,306.277252 717.012329,306.027527 
	C751.846130,305.651886 772.231445,331.300629 769.442322,365.139709 
	C767.604553,387.436066 756.626770,403.198792 734.866821,411.130646 
	C741.202515,422.598389 747.374329,433.769562 753.724426,445.263885 
M672.147400,346.527374 
	C672.147400,358.951599 672.147400,371.375824 672.147400,384.172058 
	C687.793762,384.172058 702.752319,384.186737 717.710815,384.166504 
	C726.558594,384.154572 732.500305,379.637177 735.899963,371.780090 
	C738.837097,364.992126 739.006958,357.858124 737.112000,350.750275 
	C734.413513,340.628784 727.187073,335.029175 716.776245,334.973755 
	C703.293457,334.901978 689.809937,334.946045 676.326721,334.970032 
	C675.057129,334.972290 673.787842,335.187500 672.147400,335.337860 
	C672.147400,338.941528 672.147400,342.239838 672.147400,346.527374 
z"/>
<path fill="#EBF1F6" opacity="1.000000" stroke="none" 
	d="
M344.000061,306.136047 
	C363.630371,306.136047 382.760712,306.136047 402.262024,306.136047 
	C402.262024,315.774872 402.262024,325.018402 402.262024,334.896057 
	C372.724792,334.896057 343.205109,334.896057 313.437256,334.896057 
	C313.437256,351.252991 313.437256,366.980347 313.437256,383.316711 
	C338.598694,383.316711 363.489075,383.316711 388.633484,383.316711 
	C388.633484,393.021515 388.633484,402.121948 388.633484,411.767700 
	C363.766235,411.767700 338.878357,411.767700 313.575928,411.767700 
	C313.575928,427.675018 313.575928,443.047058 313.575928,458.954529 
	C342.947266,458.954529 372.342041,458.954529 402.184509,458.954529 
	C402.184509,468.840515 402.184509,478.202362 402.184509,487.786377 
	C362.603424,487.786377 323.182587,487.786377 283.414673,487.786377 
	C283.414673,427.453735 283.414673,367.232788 283.414673,306.136047 
	C303.369385,306.136047 323.434723,306.136047 344.000061,306.136047 
z"/>
<path fill="#EBF1F6" opacity="1.000000" stroke="none" 
	d="
M459.000122,747.182617 
	C474.634521,747.182617 489.768921,747.182617 505.262329,747.182617 
	C505.262329,756.863281 505.262329,766.105957 505.262329,775.677673 
	C465.747162,775.677673 426.326141,775.677673 386.486542,775.677673 
	C386.486542,715.449463 386.486542,655.094177 386.486542,594.436523 
	C426.022278,594.436523 465.444366,594.436523 505.248596,594.436523 
	C505.248596,603.747864 505.248596,612.995544 505.248596,622.898315 
	C475.718170,622.898315 446.190765,622.898315 416.453918,622.898315 
	C416.453918,639.284424 416.453918,655.018372 416.453918,671.214111 
	C441.519562,671.214111 466.289856,671.214111 491.475281,671.214111 
	C491.475281,680.877014 491.475281,690.092102 491.475281,699.872437 
	C466.677399,699.872437 441.780212,699.872437 416.519409,699.872437 
	C416.519409,715.810242 416.519409,731.190979 416.519409,747.182617 
	C430.610626,747.182617 444.555359,747.182617 459.000122,747.182617 
z"/>
<path fill="#EBF1F6" opacity="1.000000" stroke="none" 
	d="
M530.999756,453.772949 
	C516.500671,453.772491 502.496399,453.987671 488.505615,453.647705 
	C483.969147,453.537476 482.147980,455.160828 480.880737,459.261841 
	C478.230347,467.838989 475.179108,476.300415 471.993408,484.695831 
	C471.463715,486.091766 469.448883,487.816345 468.075775,487.856323 
	C458.592773,488.132202 449.097931,488.001587 438.841980,488.001587 
	C439.505859,485.980957 439.978119,484.346619 440.573883,482.758698 
	C462.079071,425.443024 483.623993,368.142212 505.040985,310.793640 
	C506.330994,307.339355 507.888611,305.717590 511.785736,306.052490 
	C517.384155,306.533630 524.314392,304.513123 528.286987,307.154144 
	C532.038269,309.647980 532.783813,316.755829 534.710571,321.887024 
	C554.886475,375.617767 575.034058,429.359131 595.188538,483.097900 
	C595.708618,484.484619 596.219055,485.875031 597.000366,487.981995 
	C586.458008,487.981995 576.398804,488.078796 566.348145,487.831177 
	C565.351562,487.806610 563.990479,485.831116 563.505432,484.502960 
	C560.309753,475.753357 557.091797,466.999603 554.349060,458.102936 
	C553.246033,454.524872 551.509094,453.522827 547.994568,453.700348 
	C542.509094,453.977417 536.999268,453.773224 530.999756,453.772949 
M529.596252,386.940582 
	C525.810181,376.137329 522.024048,365.334076 517.777771,353.217682 
	C509.193085,377.981323 501.153198,401.173553 493.010315,424.662781 
	C509.688843,424.662781 525.784973,424.662781 542.610168,424.662781 
	C538.275757,412.074585 534.074890,399.874054 529.596252,386.940582 
z"/>
<path fill="#EBF1F6" opacity="1.000000" stroke="none" 
	d="
M610.210327,595.963806 
	C612.312805,595.097290 614.274963,594.234558 616.247742,594.209473 
	C621.708008,594.140198 628.412048,592.548096 632.276001,595.105774 
	C635.909363,597.510803 636.623169,604.412964 638.491272,609.385437 
	C658.723877,663.240479 678.931641,717.104919 699.140625,770.968811 
	C699.712769,772.493835 700.222961,774.042053 700.908997,775.998413 
	C690.627258,775.998413 680.810486,776.111694 671.003540,775.851685 
	C669.809570,775.820068 668.096252,773.992065 667.596069,772.637512 
	C664.256104,763.592773 661.096924,754.478088 658.071838,745.322388 
	C657.218872,742.740662 656.072083,741.683289 653.174622,741.702209 
	C632.354370,741.838135 611.532227,741.848145 590.712219,741.691711 
	C587.548889,741.667908 586.395020,742.922607 585.490601,745.660217 
	C582.517822,754.657959 579.410767,763.616028 576.080444,772.486145 
	C575.539734,773.926270 573.631042,775.806458 572.305969,775.845886 
	C562.664978,776.132690 553.011536,776.000183 542.598083,776.000183 
	C565.217163,715.779114 587.646057,656.064453 610.210327,595.963806 
M643.591614,712.851318 
	C648.060303,712.879395 645.743286,710.197388 645.172119,708.539795 
	C637.920654,687.494507 630.600098,666.472961 623.271423,645.454407 
	C622.918030,644.440674 622.325195,643.510437 621.558472,641.966980 
	C617.272400,654.247559 613.204895,665.836060 609.184387,677.440918 
	C605.146057,689.096985 601.154419,700.769287 596.998291,712.853333 
	C612.812561,712.853333 627.784668,712.853333 643.591614,712.851318 
z"/>
<path fill="#ECF1F7" opacity="1.000000" stroke="none" 
	d="
M776.151978,716.009399 
	C776.151978,736.137085 776.151978,755.766968 776.151978,775.698792 
	C766.039246,775.698792 756.317383,775.698792 746.331787,775.698792 
	C746.331787,715.267761 746.331787,655.037292 746.331787,594.471313 
	C785.104126,594.471313 823.680603,594.471313 862.705811,594.471313 
	C862.705811,603.756042 862.705811,613.108765 862.705811,622.879639 
	C834.086365,622.879639 805.490784,622.879639 776.525024,622.879639 
	C776.525024,639.668091 776.525024,656.047058 776.525024,672.905762 
	C800.705322,672.905762 824.791199,672.905762 849.201233,672.905762 
	C849.201233,682.633606 849.201233,691.887451 849.201233,701.681091 
	C824.985535,701.681091 800.922424,701.681091 776.151978,701.681091 
	C776.151978,706.640015 776.151978,711.075806 776.151978,716.009399 
z"/>
<path fill="#ECF1F7" opacity="1.000000" stroke="none" 
	d="
M118.326431,306.144745 
	C127.409035,306.141083 136.019699,306.141083 145.069138,306.141083 
	C145.069138,357.267212 145.069138,407.821564 145.069138,458.917694 
	C174.889618,458.917694 204.269165,458.917694 234.139633,458.917694 
	C234.139633,468.794830 234.139633,478.140503 234.139633,487.747375 
	C194.666946,487.747375 155.258057,487.747375 115.073242,487.747375 
	C115.073242,486.021393 115.073280,484.271088 115.073242,482.520782 
	C115.071899,425.568054 115.052574,368.615326 115.143196,311.662750 
	C115.146393,309.650574 113.402763,306.206818 118.326431,306.144745 
z"/>
<path fill="#ECF1F7" opacity="1.000000" stroke="none" 
	d="
M219.070251,676.000000 
	C219.070251,648.676208 219.070251,621.852478 219.070251,594.583374 
	C229.002411,594.583374 238.705765,594.583374 249.076309,594.583374 
	C249.076309,645.245300 249.076309,695.949219 249.076309,747.183350 
	C279.138580,747.183350 308.546539,747.183350 338.291046,747.183350 
	C338.291046,756.956116 338.291046,766.196777 338.291046,775.721191 
	C298.685211,775.721191 259.258698,775.721191 219.070251,775.721191 
	C219.070251,742.667297 219.070251,709.583618 219.070251,676.000000 
z"/>
<path fill="#01FF95" opacity="1.000000" stroke="none" 
	d="
M672.147400,346.032776 
	C672.147400,342.239838 672.147400,338.941528 672.147400,335.337860 
	C673.787842,335.187500 675.057129,334.972290 676.326721,334.970032 
	C689.809937,334.946045 703.293457,334.901978 716.776245,334.973755 
	C727.187073,335.029175 734.413513,340.628784 737.112000,350.750275 
	C739.006958,357.858124 738.837097,364.992126 735.899963,371.780090 
	C732.500305,379.637177 726.558594,384.154572 717.710815,384.166504 
	C702.752319,384.186737 687.793762,384.172058 672.147400,384.172058 
	C672.147400,371.375824 672.147400,358.951599 672.147400,346.032776 
z"/>
<path fill="#04FF96" opacity="1.000000" stroke="none" 
	d="
M529.735107,387.307068 
	C534.074890,399.874054 538.275757,412.074585 542.610168,424.662781 
	C525.784973,424.662781 509.688843,424.662781 493.010315,424.662781 
	C501.153198,401.173553 509.193085,377.981323 517.777771,353.217682 
	C522.024048,365.334076 525.810181,376.137329 529.735107,387.307068 
z"/>
<path fill="#04FF96" opacity="1.000000" stroke="none" 
	d="
M643.174194,712.852295 
	C627.784668,712.853333 612.812561,712.853333 596.998291,712.853333 
	C601.154419,700.769287 605.146057,689.096985 609.184387,677.440918 
	C613.204895,665.836060 617.272400,654.247559 621.558472,641.966980 
	C622.325195,643.510437 622.918030,644.440674 623.271423,645.454407 
	C630.600098,666.472961 637.920654,687.494507 645.172119,708.539795 
	C645.743286,710.197388 648.060303,712.879395 643.174194,712.852295 
z"/>
</svg>